<?xml version="1.0" encoding="UTF-8" standalone="no"?> <svg xmlns="http://www.w3.org/2000/svg" viewBox="0 0 64 64"><defs><style>.cls-1{fill:#e0e5eb;}.cls-2{fill:#bec7d6;}.cls-3{fill:#f64f7d;}.cls-4{fill:#f8e157;}.cls-5{fill:#4f9ff6;}.cls-6{fill:#18181f;}</style></defs><g id="Brochure"><polygon class="cls-1" points="4 8.96 22.67 15.04 22.67 55.05 4 48.95 4 8.96"/><polygon class="cls-2" points="41.33 8.96 22.67 15.04 22.67 55.05 41.33 48.95 41.33 8.96"/><polygon class="cls-1" points="41.33 8.96 60 15.04 60 55.05 41.33 48.95 41.33 8.96"/><polygon class="cls-3" points="45.3 14.43 45.3 31.63 56.03 35.12 56.03 17.93 45.3 14.43"/><polygon class="cls-4" points="7.61 14.43 7.61 31.63 18.34 35.12 18.34 17.93 7.61 14.43"/><polygon class="cls-5" points="15.07 39.74 15.07 45.01 18.34 46.07 18.34 40.8 15.07 39.74"/><polygon class="cls-5" points="7.61 37.3 7.61 42.58 12.08 44.03 12.08 38.76 7.61 37.3"/><polygon class="cls-1" points="30.7 38.81 30.7 47.75 27.43 48.81 27.43 39.87 30.7 38.81"/><polygon class="cls-1" points="38.16 36.38 38.16 45.31 33.69 46.77 33.69 37.83 38.16 36.38"/><path class="cls-6" d="M60.31,14.09c-3.87-1.26-18.38-6-18.75-6.09a1.14,1.14,0,0,0-.45,0c-.36.08-13.65,4.43-18.44,6L4.31,8a1,1,0,0,0-.9.15A1,1,0,0,0,3,9V49a1,1,0,0,0,.69.95L22.36,56A1,1,0,0,0,23,56l18.35-6,18.36,6A1,1,0,0,0,61,55V15A1,1,0,0,0,60.31,14.09ZM5,10.33l16.67,5.44v37.9L5,48.23Zm18.67,5.44,16.66-5.44v37.9L23.67,53.67ZM59,53.67,42.33,48.23V10.33L59,15.77Z"/><path class="cls-6" d="M45,32.58l10.72,3.49a1,1,0,0,0,1.31-1V17.93a1,1,0,0,0-.69-1L45.62,13.48a1,1,0,0,0-1.31.95V31.62A1,1,0,0,0,45,32.58Zm1.31-16.77L55,18.65v15.1L46.31,30.9Z"/><path class="cls-6" d="M56.34,38.92l-3.29-1.07a1,1,0,0,0-.62,1.9l3.29,1.07a1.12,1.12,0,0,0,.31,0,1,1,0,0,0,.31-1.95Z"/><path class="cls-6" d="M50.31,37l-4.69-1.53a1,1,0,0,0-1.27.64A1,1,0,0,0,45,37.32l4.69,1.53a.81.81,0,0,0,.31,0A1,1,0,0,0,50.31,37Z"/><path class="cls-6" d="M56.34,42.63l-3.29-1.07a1,1,0,0,0-.62,1.9l3.29,1.07a.84.84,0,0,0,.31,0,1,1,0,0,0,.95-.69A1,1,0,0,0,56.34,42.63Z"/><path class="cls-6" d="M45,41l4.69,1.53a1.06,1.06,0,0,0,.31,0,1,1,0,0,0,.31-1.95l-4.69-1.54A1,1,0,1,0,45,41Z"/><path class="cls-6" d="M56.34,46.28l-3.29-1.07a1,1,0,0,0-.62,1.9l3.29,1.07a1.12,1.12,0,0,0,.31,0,1,1,0,0,0,.31-1.95Z"/><path class="cls-6" d="M50.31,44.31l-4.69-1.53a1,1,0,0,0-1.27.64A1,1,0,0,0,45,44.68l4.69,1.53a.81.81,0,0,0,.31,0,1,1,0,0,0,.31-1.95Z"/><path class="cls-6" d="M18.65,17,7.92,13.48a1,1,0,0,0-1.31.95V31.62a1,1,0,0,0,.69,1L18,36.07a1,1,0,0,0,1.31-1V17.93A1,1,0,0,0,18.65,17ZM17.34,33.75,8.61,30.9V15.81l8.73,2.84Z"/><path class="cls-6" d="M18.64,39.85l-3.26-1.06a1,1,0,0,0-1.31,1V45a1,1,0,0,0,.69,1L18,47a1,1,0,0,0,1.31-1V40.8A1,1,0,0,0,18.64,39.85ZM17.33,44.7l-1.26-.42V41.11l1.26.42Z"/><path class="cls-6" d="M12.39,37.81,7.92,36.35a1,1,0,0,0-.9.14,1,1,0,0,0-.41.81v5.28a1,1,0,0,0,.69,1L11.77,45A1,1,0,0,0,13.08,44V38.76A1,1,0,0,0,12.39,37.81Zm-1.31,4.85-2.47-.81V38.68l2.47.81Z"/><path class="cls-6" d="M27.1,19.58a1.06,1.06,0,0,0,.31,0l3.29-1.07a1,1,0,1,0-.62-1.9l-3.29,1.07a1,1,0,0,0,.31,1.95Z"/><path class="cls-6" d="M33.14,17.61a.87.87,0,0,0,.31-.05L38.14,16a1,1,0,1,0-.62-1.9l-4.69,1.53a1,1,0,0,0,.31,1.95Z"/><path class="cls-6" d="M31.34,21a1,1,0,0,0-1.26-.65l-3.29,1.08a1,1,0,0,0,.31,2,1.06,1.06,0,0,0,.31-.05L30.7,22.3A1,1,0,0,0,31.34,21Z"/><path class="cls-6" d="M33.14,21.45a1.18,1.18,0,0,0,.31-.05l4.69-1.53a1,1,0,0,0-.62-1.9L32.83,19.5a1,1,0,0,0,.31,1.95Z"/><path class="cls-6" d="M31.34,24.87a1,1,0,0,0-1.26-.64L26.79,25.3a1,1,0,0,0-.64,1.27,1,1,0,0,0,1,.69,1.06,1.06,0,0,0,.31-.05l3.29-1.08A1,1,0,0,0,31.34,24.87Z"/><path class="cls-6" d="M33.14,25.29a1.18,1.18,0,0,0,.31-.05l4.69-1.53a1,1,0,0,0-.62-1.9l-4.69,1.53a1,1,0,0,0,.31,1.95Z"/><path class="cls-6" d="M30.08,28.07l-3.29,1.07a1,1,0,0,0-.64,1.26,1,1,0,0,0,1,.69.81.81,0,0,0,.31-.05L30.7,30a1,1,0,0,0,.64-1.26A1,1,0,0,0,30.08,28.07Z"/><path class="cls-6" d="M33.14,29.13a1.18,1.18,0,0,0,.31-.05l4.69-1.53a1,1,0,0,0-.62-1.91l-4.69,1.54a1,1,0,0,0,.31,1.95Z"/><path class="cls-6" d="M27.41,34.88l3.29-1.07a1,1,0,0,0-.62-1.9L26.79,33a1,1,0,0,0-.64,1.26,1,1,0,0,0,1,.69A.81.81,0,0,0,27.41,34.88Z"/><path class="cls-6" d="M33.45,32.92l4.69-1.53a1,1,0,0,0-.62-1.91L32.83,31a1,1,0,0,0-.64,1.27,1,1,0,0,0,1,.68A1.15,1.15,0,0,0,33.45,32.92Z"/><path class="cls-6" d="M31.28,38a1,1,0,0,0-.89-.14l-3.27,1.06a1,1,0,0,0-.69.95v8.94a1,1,0,0,0,1.31.95L31,48.7a1,1,0,0,0,.69-1V38.81A1,1,0,0,0,31.28,38ZM29.7,47l-1.27.41V40.6l1.27-.41Z"/><path class="cls-6" d="M38.74,35.57a1,1,0,0,0-.89-.14l-4.47,1.45a1,1,0,0,0-.69.95v8.94a1,1,0,0,0,1.31.95l4.47-1.45a1,1,0,0,0,.69-1V36.38A1,1,0,0,0,38.74,35.57Zm-1.58,9-2.47.8V38.56l2.47-.81Z"/></g></svg>