<?xml version="1.0" encoding="UTF-8" standalone="no"?> <svg xmlns="http://www.w3.org/2000/svg" viewBox="0 0 64 64"><defs><style>.cls-1{fill:#e0e5eb;}.cls-2{fill:#4f9ff6;}.cls-3{fill:#3f76d3;}.cls-4{fill:#bec7d6;}.cls-5{fill:#f64f7d;}.cls-6{fill:#e43b74;}.cls-7{fill:#fcbf4a;}.cls-8{fill:#57cc98;}.cls-9{fill:#18181f;}</style></defs><g id="Web_Promotion" data-name="Web Promotion"><rect class="cls-1" x="4" y="8" width="56" height="48"/><polygon class="cls-2" points="24.33 33.08 34.19 24.06 39.67 33.55 26.93 37.59 24.33 33.08"/><polygon class="cls-3" points="29.44 36.79 33.87 40.8 36.36 38.04 33.54 35.49 29.44 36.79"/><path class="cls-2" d="M23.47,44H40.53a3.35,3.35,0,1,1,0,6.69H23.47a3.35,3.35,0,1,1,0-6.69"/><rect class="cls-4" x="51.81" y="8" width="8.19" height="48"/><rect class="cls-5" x="4" y="8" width="56" height="10.54"/><path class="cls-6" d="M12.31,13.27a2.13,2.13,0,1,1-2.13-2.13,2.13,2.13,0,0,1,2.13,2.13"/><path class="cls-7" d="M19.81,13.27a2.13,2.13,0,1,1-2.13-2.13,2.13,2.13,0,0,1,2.13,2.13"/><path class="cls-8" d="M27.31,13.27a2.13,2.13,0,1,1-2.13-2.13,2.13,2.13,0,0,1,2.13,2.13"/><rect class="cls-6" x="51.81" y="8" width="8.19" height="10.54"/><path class="cls-9" d="M4,57H60a1,1,0,0,0,1-1V8a1,1,0,0,0-1-1H4A1,1,0,0,0,3,8V56A1,1,0,0,0,4,57Zm1-2V19.54H59V55ZM5,9H59v8.54H5Z"/><path class="cls-9" d="M10.18,10.14a3.13,3.13,0,1,0,3.13,3.13A3.14,3.14,0,0,0,10.18,10.14Zm0,4.26a1.13,1.13,0,1,1,1.13-1.13A1.14,1.14,0,0,1,10.18,14.4Z"/><path class="cls-9" d="M17.68,10.14a3.13,3.13,0,1,0,3.13,3.13A3.13,3.13,0,0,0,17.68,10.14Zm0,4.26a1.13,1.13,0,1,1,1.13-1.13A1.13,1.13,0,0,1,17.68,14.4Z"/><path class="cls-9" d="M25.18,10.14a3.13,3.13,0,1,0,3.13,3.13A3.13,3.13,0,0,0,25.18,10.14Zm0,4.26a1.13,1.13,0,1,1,1.13-1.13A1.13,1.13,0,0,1,25.18,14.4Z"/><path class="cls-9" d="M26.06,38.08a1,1,0,0,0,1.17.46l2-.62,4,3.62a1,1,0,0,0,1.42-.08l2.49-2.75A1,1,0,0,0,37,37.29l-1.52-1.37L40,34.5a1,1,0,0,0,.63-.59,1,1,0,0,0-.07-.86l-5.48-9.49a1,1,0,0,0-1.54-.24l-9.87,9a1,1,0,0,0-.19,1.24Zm8.89,0L33.8,39.38l-2.4-2.16,1.9-.6ZM34,25.63,38.19,33l-10.8,3.42-1.8-3.12Z"/><path class="cls-9" d="M40.53,43H23.47a4.35,4.35,0,1,0,0,8.69H40.53a4.35,4.35,0,1,0,0-8.69Zm0,6.69H23.47a2.35,2.35,0,1,1,0-4.69H40.53a2.35,2.35,0,1,1,0,4.69Z"/></g></svg>